<svg xmlns="http://www.w3.org/2000/svg" width="54px" height="54px" viewBox="0 0 1024 1024">
  <defs/>
  <defs>
    <radialGradient id="a" cx="19.2474387%" cy="99.4651948%" r="108.959588%" fx="19.2474387%" fy="99.4651948%">
      <stop offset="0%" stop-color="#09F"/>
      <stop offset="60.9753877%" stop-color="#A033FF"/>
      <stop offset="93.482299%" stop-color="#FF5280"/>
      <stop offset="100%" stop-color="#FF7061"/>
    </radialGradient>
  </defs>
  <g fill="none" fill-rule="evenodd">
    <path fill="none" d="M0 0h1024v1024H0z"/>
    <path fill="url(#a)" d="M512 122c-225.332 0-400 165.056-400 388 0 116.6144 47.792 217.3824 125.6224 286.984 6.5336 5.848 10.4776 14.04 10.7456 22.808l2.1784 71.152c.696 22.696 24.1392 37.464 44.9072 28.296l79.3944-35.048c6.7304-2.968 14.272-3.52 21.364-1.568C432.696 892.656 471.5264 898 512 898c225.332 0 400-165.056 400-388S737.332 122 512 122z"/>
    <path fill="#FFF" d="M271.8016 623.4688l117.5-186.416c18.6904-29.656 58.7144-37.04 86.7584-16.008l93.4536 70.0904c8.5744 6.432 20.372 6.3976 28.9104-.0824l126.2136-95.788c16.8464-12.784 38.836 7.376 27.5624 25.2664L634.7 606.9488c-18.692 29.6544-58.716 37.04-86.7584 16.0064l-93.456-70.092c-8.5736-6.4304-20.372-6.396-28.9096.084l-126.2144 95.788c-16.8456 12.7832-38.836-7.3768-27.56-25.2664z"/>
  </g>
</svg>