<svg viewBox="0 0 24 24">
  <g fill="none" fill-rule="evenodd">
    <path fill="#EA4335" d="M12 4.64c2.25 0 3.77.97 4.64 1.79l3.39-3.31A11.53 11.53 0 0012 0 12 12 0 001.28 6.61l3.88 3.02A7.25 7.25 0 0112 4.64z"></path>
    <path fill="#4285F4" d="M23.52 12.27c0-.99-.08-1.71-.25-2.46H12v4.46h6.61a5.86 5.86 0 01-2.45 3.89l3.79 2.93c2.26-2.09 3.57-5.17 3.57-8.82z"></path>
    <path fill="#FBBC05" d="M5.17 14.37a7.39 7.39 0 01-.01-4.74L1.28 6.6a12.02 12.02 0 000 10.78l3.9-3.02z"></path>
    <path fill="#34A853" d="M12 24c3.24 0 5.96-1.07 7.95-2.9l-3.79-2.94a7.1 7.1 0 01-4.16 1.2 7.22 7.22 0 01-6.83-4.99L1.3 17.4A11.97 11.97 0 0012 24z"></path>
    <path d="M0 0h24v24H0z"></path>
  </g>
</svg>